<svg data-name="Group 9" xmlns="http://www.w3.org/2000/svg" width="223.6" height="61.998" viewBox="0 0 223.6 61.998">
    <defs>
        <linearGradient id="67zwoldqoa" x1=".5" x2=".5" y2=".389" gradientUnits="objectBoundingBox">
            <stop offset="0" stop-color="#fbda09"/>
            <stop offset="1" stop-color="#ffbc00"/>
        </linearGradient>
        <linearGradient id="rt3f5y0s7c" y1=".585" x2=".693" y2=".391" gradientUnits="objectBoundingBox">
            <stop offset="0" stop-color="#01e2ff"/>
            <stop offset="1" stop-color="#01c4ff"/>
        </linearGradient>
        <linearGradient id="sk6h2rh9qd" x1=".203" y1=".201" x2=".838" y2=".836" gradientUnits="objectBoundingBox">
            <stop offset="0" stop-color="#28d781"/>
            <stop offset="1" stop-color="#02f076"/>
        </linearGradient>
        <linearGradient id="20wvzambfe" x1=".745" y1=".174" x2=".101" y2=".912" gradientUnits="objectBoundingBox">
            <stop offset="0" stop-color="#f2414e"/>
            <stop offset="1" stop-color="#e02554"/>
        </linearGradient>
        <clipPath id="s319fakhgb">
            <path d="M1.421 4.8c3.479-6.4 17.464-6.4 20.945 0l.467.858c3.566 6.557-3.475 18.4-10.939 18.4C4.429 24.061-2.611 12.217.955 5.66z" transform="rotate(90 12.03 12.03)" style="fill:url(#67zwoldqoa)"/>
        </clipPath>
    </defs>
    <g data-name="background" style="stroke-miterlimit:10;stroke:#a6a6a6">
        <rect width="223.6" height="61.998" rx="10" style="stroke:none"/>
        <rect x=".5" y=".5" width="222.6" height="60.998" rx="9.5" style="fill:none"/>
    </g>
    <g data-name="background" style="stroke:#8f8f8f;fill:none;stroke-miterlimit:10">
        <rect width="223.6" height="61.998" rx="10" style="stroke:none"/>
        <rect x=".5" y=".5" width="222.6" height="60.998" rx="9.5" style="fill:none"/>
    </g>
    <g data-name="get it on">
        <path d="M5.273 10.163A5.186 5.186 0 0 1 0 5.082 5.186 5.186 0 0 1 5.273 0a5.186 5.186 0 0 1 5.272 5.082 5.186 5.186 0 0 1-5.272 5.081zm0-8.611a3.6 3.6 0 0 0-3.662 3.53 3.6 3.6 0 0 0 3.662 3.529 3.6 3.6 0 0 0 3.662-3.529 3.6 3.6 0 0 0-3.662-3.529z" transform="translate(115.943 10.446)" style="fill:#fff"/>
        <path d="M0 9.458V0h5.859v1.129H1.611v2.964h3.808v1.13H1.611v3.105h4.248v1.13z" transform="translate(83.866 10.869)" style="fill:#fff"/>
        <path d="M2.49 9.458V1.129H0V0h6.591v1.129H4.1v8.329z" transform="translate(91.336 10.869)" style="fill:#fff"/>
        <path data-name="t" d="M2.49 9.458V1.129H0V0h6.591v1.129H4.1v8.329z" transform="translate(105.69 10.869)" style="fill:#fff"/>
        <path transform="translate(102.615 10.869)" style="fill:#fff" d="M0 0h1.611v9.458H0z"/>
        <path d="M6.3 9.458 1.611 2.077v7.381H0V0h1.9l4.4 6.92V0h1.609v9.458z" transform="translate(127.808 10.869)" style="fill:#fff"/>
        <path data-name="Rectangle 1" d="M0 0h4.411l-.043 1.346H0z" transform="translate(77.829 15.128)" style="fill:#fff"/>
        <path data-name="Oval 1" d="M5.231 9.965h-.055A5.092 5.092 0 0 1 0 4.983 5.088 5.088 0 0 1 5.176 0a4.984 4.984 0 0 1 3.608 1.375l-1.009.972a3.6 3.6 0 0 0-2.555-.959 3.671 3.671 0 0 0-3.735 3.595 3.671 3.671 0 0 0 3.735 3.6 3.557 3.557 0 0 0 2.588-.93 3.616 3.616 0 0 0 .935-2.665c0-.148 0-.3-.01-.441h1.288V4.597a4.608 4.608 0 0 1-.969 3.785 5.006 5.006 0 0 1-3.821 1.583z" transform="translate(72.588 10.587)" style="fill:#fff"/>
    </g>
    <g data-name="big P">
        <path data-name="Combined Shape" d="M8.3 12.148H0V0h8.3a6.38 6.38 0 0 1 2.39 1.053 5.523 5.523 0 0 1 1.643 1.84 6.543 6.543 0 0 1 .747 3.181 6.543 6.543 0 0 1-.747 3.181 5.522 5.522 0 0 1-1.643 1.84 6.384 6.384 0 0 1-2.39 1.053zM1.611 2.939v6.519h5.637a2.663 2.663 0 0 0 1.283-.408A3.1 3.1 0 0 0 9.814 6.2a3.1 3.1 0 0 0-1.283-2.854 2.663 2.663 0 0 0-1.283-.407z" transform="translate(163.985 27.809)" style="fill:#fff"/>
        <path data-name="Rectangle 6" style="fill:#fff" d="M0 0h2.929v19.763H0z" transform="translate(163.253 27.809)"/>
    </g>
    <path transform="translate(178.779 27.809)" style="fill:#fff" d="M0 0h2.929v19.763H0z"/>
    <path d="M11.736 13.122h-2.93v-1.407a7.23 7.23 0 0 1-4.134 1.368 7.55 7.55 0 0 1-.448.014A3.828 3.828 0 0 1 .53 11.14 4.863 4.863 0 0 1 0 8.982v-.046a3.781 3.781 0 0 1 3.483-4.11 11.275 11.275 0 0 1 1.596-.116 8.867 8.867 0 0 1 3.727.765V4.9a2.744 2.744 0 0 0-2.8-2.182c-2.636 0-3.25 1.375-3.256 1.389L.312 2.713a4.718 4.718 0 0 1 1.195-1.357A6.693 6.693 0 0 1 5.774 0a6.155 6.155 0 0 1 4.879 1.822 4.336 4.336 0 0 1 1.083 2.689v8.61zM5.84 7.13c-1.349 0-2.98.337-3.083 1.941a1.546 1.546 0 0 0 .369 1.206 2.07 2.07 0 0 0 1.552.535 5.426 5.426 0 0 0 2.491-.679 2.8 2.8 0 0 0 1.5-1.64A5.018 5.018 0 0 0 8.6 7.482a12.621 12.621 0 0 0-2.76-.352z" transform="translate(183.76 34.443)" style="fill:#fff"/>
    <path data-name="y" d="m2.49 18.21 2.732-6.255L0 0h2.929l3.758 8.6L10.415.069h2.93L5.419 18.21z" transform="translate(195.77 34.867)" style="fill:#fff"/>
    <path data-name="e" d="M6.876 13.415a6.584 6.584 0 0 1-5.228-2.338A7.019 7.019 0 0 1 0 6.78a7.5 7.5 0 0 1 1.448-4.334A6.11 6.11 0 0 1 6.581 0 5.95 5.95 0 0 1 9.62.788a6.369 6.369 0 0 1 1.9 1.734 8.165 8.165 0 0 1 1.256 2.521l-9.265 3.69a2.793 2.793 0 0 0 .662 1.03A3.688 3.688 0 0 0 6.9 10.788h.018a4.424 4.424 0 0 0 3.394-1.863l2.351 1.535v.005a6.806 6.806 0 0 1-1.431 1.473 7.071 7.071 0 0 1-4.356 1.477zm-.14-10.85A2.537 2.537 0 0 0 6.3 2.6a3.693 3.693 0 0 0-3.073 2.182 3.591 3.591 0 0 0-.235 1.678L9.251 4a3.42 3.42 0 0 0-2.515-1.435z" transform="translate(143.919 34.443)" style="fill:#fff"/>
    <path data-name="i" transform="translate(139.525 27.809)" style="fill:#fff" d="M0 0h3.099v19.721H0z"/>
    <path data-name="g" d="M6.7 19.431a6.47 6.47 0 0 1-4.8-1.974 6.547 6.547 0 0 1-1.32-1.974l2.631-1.067a3.806 3.806 0 0 0 3.623 2.434 3.5 3.5 0 0 0 3.587-3.78v-1.351A4.673 4.673 0 0 1 6.548 13.4a6.759 6.759 0 0 1-4.4-1.762A6.552 6.552 0 0 1 0 6.712 6.635 6.635 0 0 1 6.584 0h.153a4.691 4.691 0 0 1 3.683 1.659V.428l2.865.024V12.9A6.219 6.219 0 0 1 6.7 19.431zm.1-16.8a3.967 3.967 0 0 0-3.79 4.116 3.967 3.967 0 0 0 3.783 4.119 3.966 3.966 0 0 0 3.783-4.119 3.966 3.966 0 0 0-3.782-4.119z" transform="translate(124.145 34.444)" style="fill:#fff"/>
    <path data-name="o" d="M6.973 13.41A6.851 6.851 0 0 1 0 6.705 6.851 6.851 0 0 1 6.973 0a6.85 6.85 0 0 1 6.973 6.705 6.85 6.85 0 0 1-6.973 6.705zM6.928 2.63a4 4 0 0 0-3.92 4.075 4 4 0 0 0 3.92 4.075 4 4 0 0 0 3.919-4.075A4 4 0 0 0 6.928 2.63z" transform="translate(108.912 34.443)" style="fill:#fff"/>
    <path data-name="o" d="M6.973 13.41A6.851 6.851 0 0 1 0 6.705 6.851 6.851 0 0 1 6.973 0a6.85 6.85 0 0 1 6.973 6.705 6.85 6.85 0 0 1-6.973 6.705zM6.928 2.63a4 4 0 0 0-3.92 4.075 4 4 0 0 0 3.92 4.075 4 4 0 0 0 3.919-4.075A4 4 0 0 0 6.928 2.63z" transform="translate(93.826 34.443)" style="fill:#fff"/>
    <g data-name="big g">
        <path data-name="Rectangle 1" d="M0 0h9.206l-.091 2.8H0z" transform="translate(82.793 36.569)" style="fill:#fff"/>
        <path data-name="Oval 1" d="M10.916 20.774H10.8a10.977 10.977 0 0 1-7.638-3.045 10.1 10.1 0 0 1 0-14.686A10.952 10.952 0 0 1 10.8 0a11.81 11.81 0 0 1 4.263.751 9.175 9.175 0 0 1 3.268 2.115l-2.105 2.026a7.508 7.508 0 0 0-5.334-2A7.656 7.656 0 0 0 3.1 10.386a7.657 7.657 0 0 0 7.793 7.494 7.427 7.427 0 0 0 5.4-1.941 7.537 7.537 0 0 0 1.951-5.554c.007-.306 0-.615-.022-.92h2.689V9.57a9.6 9.6 0 0 1-2.02 7.888 9.19 9.19 0 0 1-3.491 2.466 11.735 11.735 0 0 1-4.484.85z" style="fill:#fff" transform="translate(71.855 27.103)"/>
    </g>
    <g>
        <path data-name="yellow" d="M1.421 4.8c3.479-6.4 17.464-6.4 20.945 0l.467.858c3.566 6.557-3.475 18.4-10.939 18.4C4.429 24.061-2.611 12.217.955 5.66z" transform="rotate(90 13.408 32.444)" style="fill:url(#67zwoldqoa)"/>
        <g data-name="logo_play" transform="translate(21.791 19.036)" style="clip-path:url(#s319fakhgb)">
            <path d="m.264 0 20.475 19.612L0 40z" transform="translate(-.294 -8.039)" style="fill:url(#rt3f5y0s7c)"/>
            <path d="m0 0 24.683 23.656 7.338-6.747z" transform="translate(-4.239 -12.076)" style="fill:url(#sk6h2rh9qd)"/>
            <path d="m22.327 0 11.235 10.913L0 21.827z" transform="translate(-1.881 11.575)" style="fill:url(#20wvzambfe)"/>
        </g>
    </g>
</svg>
