<svg data-name="Group 10" xmlns="http://www.w3.org/2000/svg" width="223.6" height="61.283" viewBox="0 0 223.6 61.283">
    <g data-name="backfround copy">
        <g data-name="backfround copy" style="stroke-miterlimit:10;stroke:#a6a6a6">
            <rect width="223.6" height="61.283" rx="10" style="stroke:none"/>
            <rect x=".5" y=".5" width="222.6" height="60.283" rx="9.5" style="fill:none"/>
        </g>
        <g data-name="backfround copy" style="stroke:#8f8f8f;fill:none;stroke-miterlimit:10">
            <rect width="223.6" height="61.283" rx="10" style="stroke:none"/>
            <rect x=".5" y=".5" width="222.6" height="60.283" rx="9.5" style="fill:none"/>
        </g>
    </g>
    <path data-name="App Store" d="M40.267 26.7h-3.231V5.671h3.111V8.3h.241a5.719 5.719 0 0 1 5.14-2.887 6.213 6.213 0 0 1 4.958 2.205 9.249 9.249 0 0 1 1.836 5.982 9.294 9.294 0 0 1-1.832 6 6.167 6.167 0 0 1-4.931 2.213 5.345 5.345 0 0 1-5.035-2.668h-.256v7.552zm4.359-18.477c-2.725 0-4.418 2.067-4.418 5.394S41.895 19 44.611 19C47.36 19 49 16.981 49 13.6s-1.635-5.377-4.374-5.377zM23.508 26.7h-3.231V5.671h3.111V8.3h.241a5.719 5.719 0 0 1 5.14-2.887 6.213 6.213 0 0 1 4.958 2.205 9.249 9.249 0 0 1 1.835 5.982 9.294 9.294 0 0 1-1.832 6 6.167 6.167 0 0 1-4.93 2.211 5.345 5.345 0 0 1-5.035-2.668h-.256v7.552zm4.358-18.477c-2.725 0-4.418 2.067-4.418 5.394S25.135 19 27.852 19c2.748 0 4.389-2.017 4.389-5.395s-1.635-5.382-4.375-5.382zm39.578 13.836a9.728 9.728 0 0 1-5.854-1.673 5.914 5.914 0 0 1-2.427-4.494H62.5c.288 2.015 2.28 3.266 5.2 3.266 2.717 0 4.69-1.355 4.69-3.222 0-1.6-1.236-2.56-4.134-3.222l-2.795-.657a8.535 8.535 0 0 1-4.327-2.083 5.063 5.063 0 0 1-1.385-3.734 5.579 5.579 0 0 1 2.17-4.525A9.122 9.122 0 0 1 67.64 0c4.406 0 7.62 2.482 7.816 6.036h-3.277c-.317-1.943-2.073-3.149-4.585-3.149a5.571 5.571 0 0 0-3.215.857 2.7 2.7 0 0 0-1.219 2.278c0 1.493 1.15 2.364 3.968 3l2.39.568a10.217 10.217 0 0 1 4.81 2.151 4.9 4.9 0 0 1 1.472 3.772 5.85 5.85 0 0 1-2.251 4.782 9.823 9.823 0 0 1-6.105 1.764zm51.723-.2a7.286 7.286 0 0 1-5.539-2.195 8.662 8.662 0 0 1-2.022-6 8.8 8.8 0 0 1 2.042-6.05 7.2 7.2 0 0 1 5.5-2.245 7.012 7.012 0 0 1 5.364 2.131 8.537 8.537 0 0 1 1.944 5.872v1.093H114.9v.175c.107 2.806 1.777 4.549 4.359 4.549 1.936 0 3.282-.665 3.892-1.924h3.112c-.747 2.874-3.4 4.59-7.096 4.59zm-.031-13.822a4.112 4.112 0 0 0-4.239 4.112h8.267a3.894 3.894 0 0 0-4.028-4.116zM93.493 21.855a7.514 7.514 0 0 1-5.661-2.2 8.652 8.652 0 0 1-2.064-6.055 8.616 8.616 0 0 1 2.07-6.038 8.352 8.352 0 0 1 11.3 0A8.623 8.623 0 0 1 101.2 13.6a8.659 8.659 0 0 1-2.063 6.056 7.491 7.491 0 0 1-5.644 2.199zm0-13.705c-2.793 0-4.393 1.988-4.393 5.45s1.6 5.467 4.389 5.467 4.389-1.993 4.389-5.467-1.596-5.45-4.385-5.45zM83.6 21.636a5.8 5.8 0 0 1-3.857-1 4.031 4.031 0 0 1-1.163-3.291V8.384h-2.69v-2.64h2.69V1.822h3.232v3.922h3.667v2.64h-3.665v8.164c0 1.654.714 2.391 2.315 2.391a9.713 9.713 0 0 0 1.093-.062l.109-.01v2.609a10.1 10.1 0 0 1-1.731.16zM3.457 21.55H0L7.83.511h3.622l7.831 21.037h-3.577l-1.984-5.584H5.456l-2 5.584zM9.469 4.33l-3.156 8.894h6.553L9.724 4.33zm96.44 17.219h-3.231V5.671h3.111v2.435h.24c.475-1.588 2.286-2.7 4.4-2.7a7.072 7.072 0 0 1 1.428.131v3.094a9.147 9.147 0 0 0-1.789-.189c-2.451 0-4.163 1.535-4.163 3.733v9.374z" transform="translate(67.908 25.673)" style="fill:#fff"/>
    <path data-name="Download on the" d="M118.758 10.657a3.469 3.469 0 0 1-2.637-1.045 4.125 4.125 0 0 1-.963-2.857 4.193 4.193 0 0 1 .972-2.881 3.425 3.425 0 0 1 2.62-1.069c2.178 0 3.478 1.425 3.478 3.812v.521h-5.5v.083a2.021 2.021 0 0 0 2.072 2.166 1.88 1.88 0 0 0 1.854-.917h1.481c-.353 1.37-1.616 2.187-3.377 2.187zm-.014-6.581a1.958 1.958 0 0 0-2.018 1.958h3.936a1.854 1.854 0 0 0-1.918-1.959zm-38.177 6.581a3.579 3.579 0 0 1-2.7-1.046 4.119 4.119 0 0 1-.983-2.884 4.1 4.1 0 0 1 .986-2.875 3.977 3.977 0 0 1 5.38 0 4.106 4.106 0 0 1 .985 2.875 4.123 4.123 0 0 1-.982 2.884 3.567 3.567 0 0 1-2.686 1.046zm0-6.526c-1.328 0-2.09.946-2.09 2.6s.762 2.6 2.09 2.6 2.09-.949 2.09-2.6-.757-2.6-2.09-2.6zM48.8 10.657a3.578 3.578 0 0 1-2.7-1.046 4.12 4.12 0 0 1-.983-2.884 4.1 4.1 0 0 1 .986-2.875 3.976 3.976 0 0 1 5.379 0 4.106 4.106 0 0 1 .985 2.875 4.122 4.122 0 0 1-.983 2.884 3.568 3.568 0 0 1-2.684 1.046zm0-6.526c-1.328 0-2.09.946-2.09 2.6s.762 2.6 2.09 2.6 2.09-.949 2.09-2.6-.764-2.6-2.09-2.6zm-34.57 6.526a3.579 3.579 0 0 1-2.7-1.046 4.119 4.119 0 0 1-.983-2.884 4.1 4.1 0 0 1 .986-2.875A3.578 3.578 0 0 1 14.23 2.8a3.567 3.567 0 0 1 2.687 1.048 4.106 4.106 0 0 1 .983 2.879 4.123 4.123 0 0 1-.982 2.884 3.567 3.567 0 0 1-2.688 1.046zm0-6.526c-1.328 0-2.09.946-2.09 2.6s.762 2.6 2.09 2.6 2.09-.949 2.09-2.6-.762-2.6-2.09-2.6zm51.956 6.506a2.954 2.954 0 0 1-2.361-1.057 4.417 4.417 0 0 1-.874-2.853 4.392 4.392 0 0 1 .879-2.846 2.955 2.955 0 0 1 2.356-1.055 2.577 2.577 0 0 1 2.39 1.326h.115V0h1.539v10.511h-1.475V9.317h-.122a2.732 2.732 0 0 1-2.448 1.32zm.437-6.471c-1.285 0-2.082.982-2.082 2.562 0 1.609.778 2.569 2.082 2.569s2.1-.982 2.1-2.562-.807-2.569-2.101-2.569zm-9.785 6.471a2.317 2.317 0 0 1-2.6-2.264c0-1.343 1.029-2.144 2.9-2.257L59.249 6v-.654c0-.806-.567-1.25-1.6-1.25-.861 0-1.454.306-1.625.84H54.54C54.7 3.641 55.947 2.8 57.724 2.8c1.942 0 3.056.926 3.056 2.542v5.165H59.3V9.449h-.121a2.649 2.649 0 0 1-2.342 1.188zM59.249 7.1l-1.9.118c-1.065.069-1.561.415-1.561 1.09 0 .654.568 1.076 1.446 1.076a1.821 1.821 0 0 0 2.018-1.652V7.1zm43.818 3.458a2.76 2.76 0 0 1-1.837-.474 1.92 1.92 0 0 1-.554-1.567V4.242H99.4V2.985h1.281V1.118h1.538v1.867h1.746v1.257h-1.746V8.13c0 .787.34 1.138 1.1 1.138a4.69 4.69 0 0 0 .533-.03h.04v1.242a4.841 4.841 0 0 1-.825.073zm4.625-.041h-1.538V0h1.524v4.166h.122a2.808 2.808 0 0 1 5.211 1.465v4.88h-1.541V6c0-1.207-.585-1.819-1.739-1.819a1.856 1.856 0 0 0-2.04 1.916v4.415zm-19.7 0h-1.54V2.951h1.482v1.2h.115A2.554 2.554 0 0 1 90.51 2.8a2.681 2.681 0 0 1 2.012.732 2.884 2.884 0 0 1 .708 2.08v4.894h-1.539V5.992c0-1.224-.557-1.819-1.7-1.819a1.816 1.816 0 0 0-2 1.916v4.423zm-54.534 0h-1.54V2.951H33.4v1.2h.115A2.554 2.554 0 0 1 35.976 2.8a2.681 2.681 0 0 1 2.012.732 2.884 2.884 0 0 1 .708 2.08v4.894h-1.539V5.992c0-1.224-.557-1.819-1.7-1.819a1.816 1.816 0 0 0-2 1.916v4.423zm-10.566 0H21.31l-2.148-7.566h1.561l1.4 5.77h.115l1.6-5.77h1.474l1.6 5.77h.121l1.389-5.77h1.539l-2.14 7.56h-1.6l-1.61-5.568h-.122l-1.6 5.568zm19.943 0H41.3V0h1.538v10.511zm-39.105 0H0V.493h3.729A4.861 4.861 0 0 1 7.307 1.8a5.117 5.117 0 0 1 1.281 3.671c0 3.203-1.771 5.04-4.859 5.04zM1.6 1.91V9.1h1.95c2.165 0 3.407-1.313 3.407-3.6 0-2.243-1.274-3.582-3.407-3.582z" transform="translate(71.221 9.11)" style="fill:#fff"/>
    <path data-name="Fill 2" d="M28.2 11.7a9.132 9.132 0 0 1 4.49-7.678A9.762 9.762 0 0 0 25.084.033c-3.2-.327-6.3 1.857-7.933 1.857-1.662 0-4.172-1.826-6.877-1.772A10.172 10.172 0 0 0 1.75 5.161c-3.686 6.19-.937 15.286 2.594 20.29 1.766 2.452 3.831 5.186 6.532 5.09 2.643-.1 3.631-1.635 6.82-1.635 3.16 0 4.088 1.635 6.843 1.572 2.837-.041 4.623-2.46 6.327-4.934a19.935 19.935 0 0 0 2.894-5.717A8.887 8.887 0 0 1 28.2 11.7" transform="translate(21.673 19.648)" style="fill:#fff"/>
    <path data-name="Fill 3" d="M6.216 6.452A8.826 8.826 0 0 0 8.34 0a9.555 9.555 0 0 0-6.112 3.067 8.409 8.409 0 0 0-2.18 6.214 7.905 7.905 0 0 0 6.168-2.829" transform="translate(38.45 9.938)" style="fill:#fff"/>
</svg>
